<svg t="1635954654096" class="icon" viewBox="0 0 1024 1024" version="1.1" xmlns="http://www.w3.org/2000/svg" p-id="8956" width="200" height="200">
  <path d="M512 512m-448 0a448 448 0 1 0 896 0 448 448 0 1 0-896 0Z" fill="#4565ED" p-id="8957"></path>
  <path d="M512 512m-448 0a448 448 0 1 0 896 0 448 448 0 1 0-896 0Z" fill="#88C6FF" p-id="8958"></path>
  <path d="M885.1 760H138.9C219.1 880.6 356.3 960 512 960s292.9-79.4 373.1-200zM573.4 411.3L360.1 534.4s-103.8 51.9-154.5 45.9c-17-2-36.4-18.2-36.4-18.2l315.1-181.9c37.1-21.4 80.4-15.8 96.7 12.6 3.5 5.7 0 14.1-7.6 18.5z" fill="#0285FF" p-id="8959"></path>
  <path d="M350.5 457.4s-85.9-69.3-93.8-74.5c-10.8-7.1-32.6-25.5-7.7-34.6 11.6-4.3 29.8-3.7 40 1.1 10.1 4.8 132.6 67 132.6 67l-71.1 41zM164.5 557.9s-22-20.6-27.2-25.7c-4.8-4.8-13.8-14.8-2.7-21.1 7.4-4.2 19.7-4.3 26-2.4 6.2 1.9 53.3 20.7 53.3 20.7l-49.4 28.5zM810.7 500h-90c-13.8 0-25-11.2-25-25s11.2-25 25-25h90c13.8 0 25 11.2 25 25s-11.2 25-25 25z" fill="#0285FF" p-id="8960"></path>
  <path d="M807 485h-82.6c-5.5 0-10-4.5-10-10s4.5-10 10-10H807c5.5 0 10 4.5 10 10s-4.5 10-10 10z" fill="#FFEC16" p-id="8961"></path>
  <path d="M745.7 500h40v260h-40zM765.7 410c-22.1 0-40 17.9-40 40h80c0-22.1-17.9-40-40-40z" fill="#0285FF" p-id="8962"></path>
  <path d="M765.7 420c-16.6 0-30 13.4-30 30h60c0-16.6-13.4-30-30-30z" fill="#D9EDFF" p-id="8963"></path>
</svg>